<svg width="38" height="38" fill="none" xmlns="http://www.w3.org/2000/svg"><mask id="a" style="mask-type:alpha" maskUnits="userSpaceOnUse" x="0" y="0" width="38" height="38"><path fill="#C4C4C4" d="M0 0h38v38H0z"/></mask><path d="M31.564 4.03H6.436a2.407 2.407 0 0 0-2.407 2.406v25.128a2.407 2.407 0 0 0 2.407 2.407h25.128a2.407 2.407 0 0 0 2.406-2.407V6.436a2.407 2.407 0 0 0-2.406-2.407Zm0 27.545c-16.76-.003-25.14-.007-25.14-.01.004-16.76.008-25.14.012-25.14 16.76.004 25.14.007 25.14.011-.005 16.76-.008 25.14-.012 25.14ZM8.468 15.254h4.443v14.289H8.468v-14.29Zm2.223-1.954a2.577 2.577 0 0 0 1.82-4.396 2.575 2.575 0 0 0-4.395 1.821 2.57 2.57 0 0 0 2.575 2.575Zm9.443 9.173c0-1.864.355-3.668 2.665-3.668 2.275 0 2.309 2.13 2.309 3.788v6.95h4.439v-7.837c0-3.848-.831-6.808-5.326-6.808-2.16 0-3.608 1.186-4.203 2.31h-.06v-1.954h-4.263v14.289h4.439v-7.07Z" fill="#BDBDBD"/></svg>