<svg width="38" height="38" fill="none" xmlns="http://www.w3.org/2000/svg"><mask id="a" style="mask-type:alpha" maskUnits="userSpaceOnUse" x="0" y="0" width="38" height="38"><path fill="#C4C4C4" d="M0 0h38v38H0z"/></mask><path d="M19 11.309A7.68 7.68 0 0 0 11.309 19a7.68 7.68 0 0 0 7.69 7.691A7.68 7.68 0 0 0 26.692 19 7.68 7.68 0 0 0 19 11.309Zm0 12.69A5.01 5.01 0 0 1 14 19 5.01 5.01 0 0 1 19 14.001 5.01 5.01 0 0 1 23.998 19 5.01 5.01 0 0 1 19 23.999ZM27.006 9.2c-.994 0-1.796.803-1.796 1.796 0 .994.802 1.797 1.796 1.797s1.796-.799 1.796-1.796A1.795 1.795 0 0 0 27.006 9.2ZM33.992 19c0-2.07.019-4.121-.097-6.188-.117-2.4-.664-4.53-2.419-6.284-1.759-1.76-3.885-2.303-6.285-2.42-2.07-.115-4.121-.097-6.188-.097-2.07 0-4.12-.018-6.187.098-2.4.116-4.53.663-6.285 2.418-1.759 1.76-2.302 3.885-2.419 6.285-.116 2.07-.097 4.122-.097 6.188s-.019 4.121.097 6.188c.117 2.4.664 4.53 2.419 6.285 1.759 1.758 3.885 2.302 6.285 2.418 2.07.117 4.121.098 6.187.098 2.07 0 4.122.019 6.188-.098 2.4-.116 4.53-.663 6.285-2.418 1.759-1.76 2.303-3.886 2.419-6.285.12-2.067.097-4.118.097-6.188Zm-3.3 8.843a4.767 4.767 0 0 1-1.132 1.717 4.8 4.8 0 0 1-1.718 1.133c-1.972.783-6.656.607-8.842.607-2.186 0-6.874.176-8.847-.604a4.764 4.764 0 0 1-1.717-1.132 4.797 4.797 0 0 1-1.132-1.718C6.524 25.87 6.7 21.186 6.7 19s-.176-6.874.604-8.846a4.765 4.765 0 0 1 1.132-1.718 4.848 4.848 0 0 1 1.717-1.132c1.973-.78 6.66-.604 8.847-.604 2.186 0 6.873-.176 8.846.604a4.765 4.765 0 0 1 1.718 1.132 4.796 4.796 0 0 1 1.132 1.718c.78 1.972.604 6.66.604 8.846s.176 6.87-.608 8.843Z" fill="#BDBDBD"/></svg>