<svg width="85" height="85" viewBox="0 0 85 85" fill="none" xmlns="http://www.w3.org/2000/svg">
<mask id="mask0_1099:84" style="mask-type:alpha" maskUnits="userSpaceOnUse" x="0" y="0" width="85" height="85">
<rect width="85" height="85" fill="#C4C4C4"/>
</mask>
<g mask="url(#mask0_1099:84)">
<path fill-rule="evenodd" clip-rule="evenodd" d="M51.4478 30.5C50.3206 30.5 49.2396 30.0522 48.4426 29.2552C47.6455 28.4582 47.1978 27.3772 47.1978 26.25C47.1978 25.1228 47.6455 24.0418 48.4426 23.2448C49.2396 22.4478 50.3206 22 51.4478 22H72.6978C73.8249 22 74.906 22.4478 75.703 23.2448C76.5 24.0418 76.9478 25.1228 76.9478 26.25V47.5C76.9478 48.6272 76.5 49.7082 75.703 50.5052C74.906 51.3022 73.8249 51.75 72.6978 51.75C71.5706 51.75 70.4896 51.3022 69.6926 50.5052C68.8955 49.7082 68.4478 48.6272 68.4478 47.5V36.5095L50.2025 54.7547C49.4055 55.5515 48.3247 55.9991 47.1978 55.9991C46.0708 55.9991 44.99 55.5515 44.193 54.7547L34.4478 45.0095L16.2025 63.2547C15.401 64.0289 14.3274 64.4573 13.2131 64.4476C12.0987 64.4379 11.0328 63.991 10.2448 63.203C9.45681 62.415 9.00984 61.349 9.00016 60.2347C8.99048 59.1204 9.41885 58.0468 10.193 57.2453L31.443 35.9953C32.24 35.1985 33.3208 34.7509 34.4478 34.7509C35.5747 34.7509 36.6555 35.1985 37.4525 35.9953L47.1978 45.7405L62.4383 30.5H51.4478Z" fill="white"/>
</g>
</svg>
