<svg width="85" height="85" fill="none" xmlns="http://www.w3.org/2000/svg"><path d="M42.264 40.847c6.375 0 11.333-5.194 11.333-11.57 0-6.374-5.194-11.333-11.57-11.333-6.374 0-11.333 5.195-11.333 11.334 0 6.375 5.195 11.57 11.57 11.57Zm-.236-18.18c.236 0 .236 0 0 0a6.852 6.852 0 0 1 6.847 6.847c0 3.778-3.07 6.611-6.847 6.611-3.778 0-6.611-3.07-6.611-6.611 0-3.778 3.069-6.847 6.61-6.847ZM77.209 39.43c-4.487-4.013-10.39-6.138-16.528-5.902h-1.889c-.472 1.889-1.18 3.541-2.125 4.958 1.417-.236 2.597-.236 4.014-.236 4.486-.236 8.972 1.18 12.514 3.778v17h4.722V40.139l-.708-.708ZM55.25 18.417c1.18-2.834 4.486-4.25 7.556-3.07 2.833 1.18 4.25 4.486 3.069 7.556-.945 2.125-3.07 3.542-5.194 3.542-.473 0-1.181 0-1.653-.237.236 1.18.236 2.362.236 3.306v1.417c.472 0 .944.236 1.416.236 5.903 0 10.625-4.723 10.625-10.39 0-5.902-4.722-10.624-10.388-10.624-3.778 0-7.084 1.889-8.973 5.194 1.18.709 2.361 1.653 3.306 3.07ZM28.333 38.722c-.944-1.416-1.653-3.07-2.125-4.958h-1.889A24.295 24.295 0 0 0 7.791 39.43l-.708.708v18.889h4.722v-17c3.778-2.597 8.028-4.014 12.514-3.778 1.417 0 2.834.236 4.014.472ZM24.319 30.93c.472 0 .945 0 1.417-.235v-1.417c0-1.18 0-2.361.236-3.306-.472.236-1.18.236-1.653.236-3.07 0-5.667-2.597-5.667-5.666 0-3.07 2.598-5.667 5.667-5.667a5.965 5.965 0 0 1 5.43 3.542c.945-1.18 2.362-2.361 3.542-3.306-3.07-4.958-9.444-6.61-14.402-3.542-4.959 3.07-6.612 9.445-3.542 14.403 1.889 3.07 5.194 4.959 8.972 4.959ZM61.625 53.597l-.472-.708c-4.722-5.195-11.333-8.264-18.417-8.028-7.083-.236-13.93 2.834-18.652 8.028l-.473.708v17.945c0 2.125 1.653 4.014 4.014 4.014h30.222c2.125 0 4.014-1.89 4.014-4.014V53.597h-.236Zm-4.722 17.236h-28.57V55.25c3.778-3.778 8.973-5.667 14.403-5.667 5.195-.236 10.39 1.89 14.167 5.667v15.583Z" fill="#fff"/></svg>