<svg width="38" height="38" viewBox="0 0 38 38" fill="none" xmlns="http://www.w3.org/2000/svg">
<mask id="mask0_1103:13" style="mask-type:alpha" maskUnits="userSpaceOnUse" x="0" y="0" width="38" height="38">
<rect width="38" height="38" fill="#C4C4C4"/>
</mask>
<g mask="url(#mask0_1103:13)">
</g>
<path d="M18.9998 11.3087C14.7435 11.3087 11.3085 14.7437 11.3085 19C11.3085 23.2562 14.7435 26.6912 18.9998 26.6912C23.256 26.6912 26.691 23.2562 26.691 19C26.691 14.7437 23.256 11.3087 18.9998 11.3087ZM18.9998 23.9987C16.2473 23.9987 14.001 21.7525 14.001 19C14.001 16.2475 16.2473 14.0012 18.9998 14.0012C21.7523 14.0012 23.9985 16.2475 23.9985 19C23.9985 21.7525 21.7523 23.9987 18.9998 23.9987ZM27.006 9.20125C26.0123 9.20125 25.2098 10.0037 25.2098 10.9975C25.2098 11.9912 26.0123 12.7937 27.006 12.7937C27.9998 12.7937 28.8023 11.995 28.8023 10.9975C28.8026 10.7615 28.7563 10.5278 28.6662 10.3098C28.576 10.0917 28.4437 9.89355 28.2768 9.7267C28.11 9.55984 27.9119 9.42754 27.6938 9.33738C27.4757 9.24721 27.242 9.20095 27.006 9.20125V9.20125ZM33.9923 19C33.9923 16.93 34.011 14.8787 33.8948 12.8125C33.7785 10.4125 33.231 8.2825 31.476 6.5275C29.7173 4.76875 27.591 4.225 25.191 4.10875C23.121 3.9925 21.0698 4.01125 19.0035 4.01125C16.9335 4.01125 14.8823 3.9925 12.816 4.10875C10.416 4.225 8.28604 4.7725 6.53104 6.5275C4.77229 8.28625 4.22854 10.4125 4.11229 12.8125C3.99604 14.8825 4.01479 16.9337 4.01479 19C4.01479 21.0662 3.99604 23.1212 4.11229 25.1875C4.22854 27.5875 4.77604 29.7175 6.53104 31.4725C8.28979 33.2312 10.416 33.775 12.816 33.8912C14.886 34.0075 16.9373 33.9887 19.0035 33.9887C21.0735 33.9887 23.1248 34.0075 25.191 33.8912C27.591 33.775 29.721 33.2275 31.476 31.4725C33.2348 29.7137 33.7785 27.5875 33.8948 25.1875C34.0148 23.1212 33.9923 21.07 33.9923 19V19ZM30.6923 27.8425C30.4185 28.525 30.0885 29.035 29.5598 29.56C29.031 30.0887 28.5248 30.4187 27.8423 30.6925C25.8698 31.4762 21.186 31.3 18.9998 31.3C16.8135 31.3 12.126 31.4762 10.1535 30.6962C9.47104 30.4225 8.96104 30.0925 8.43604 29.5637C7.90729 29.035 7.57729 28.5287 7.30354 27.8462C6.52354 25.87 6.69979 21.1862 6.69979 19C6.69979 16.8137 6.52354 12.1262 7.30354 10.1537C7.57729 9.47125 7.90729 8.96125 8.43604 8.43625C8.96479 7.91125 9.47104 7.5775 10.1535 7.30375C12.126 6.52375 16.8135 6.7 18.9998 6.7C21.186 6.7 25.8735 6.52375 27.846 7.30375C28.5285 7.5775 29.0385 7.9075 29.5635 8.43625C30.0923 8.965 30.4223 9.47125 30.696 10.1537C31.476 12.1262 31.2998 16.8137 31.2998 19C31.2998 21.1862 31.476 25.87 30.6923 27.8425Z" fill="#BDBDBD"/>
</svg>
