<svg width="38" height="38" viewBox="0 0 38 38" fill="none" xmlns="http://www.w3.org/2000/svg">
<mask id="mask0_1103:12" style="mask-type:alpha" maskUnits="userSpaceOnUse" x="0" y="0" width="38" height="38">
<rect width="38" height="38" fill="#C4C4C4"/>
</mask>
<g mask="url(#mask0_1103:12)">
</g>
<path d="M31.5639 4.02948H6.43581C5.10718 4.02948 4.0293 5.10736 4.0293 6.436V31.5641C4.0293 32.8927 5.10718 33.9706 6.43581 33.9706H31.5639C32.8925 33.9706 33.9704 32.8927 33.9704 31.5641V6.436C33.9704 5.10736 32.8925 4.02948 31.5639 4.02948V4.02948ZM31.5639 31.5753C14.8044 31.5715 6.42458 31.5678 6.42458 31.5641C6.42833 14.8045 6.43207 6.42477 6.43581 6.42477C23.1953 6.42851 31.5751 6.43225 31.5751 6.436C31.5714 23.1955 31.5676 31.5753 31.5639 31.5753ZM8.46807 15.2536H12.9106V29.543H8.46807V15.2536ZM10.6912 13.3C12.1097 13.3 13.2661 12.1473 13.2661 10.7251C13.2661 10.3869 13.1995 10.0521 13.0701 9.73967C12.9407 9.42727 12.7511 9.14341 12.5119 8.9043C12.2728 8.6652 11.989 8.47553 11.6766 8.34613C11.3642 8.21673 11.0293 8.15012 10.6912 8.15012C10.353 8.15012 10.0182 8.21673 9.70581 8.34613C9.3934 8.47553 9.10954 8.6652 8.87044 8.9043C8.63133 9.14341 8.44166 9.42727 8.31226 9.73967C8.18286 10.0521 8.11626 10.3869 8.11626 10.7251C8.11251 12.1473 9.26525 13.3 10.6912 13.3ZM20.1339 22.4732C20.1339 20.6094 20.4894 18.8054 22.7986 18.8054C25.0741 18.8054 25.1078 20.935 25.1078 22.593V29.543H29.5466V21.706C29.5466 17.8585 28.7157 14.8981 24.2208 14.8981C22.0613 14.8981 20.6129 16.0845 20.0178 17.2073H19.958V15.2536H15.6951V29.543H20.1339V22.4732Z" fill="#BDBDBD"/>
</svg>
