<svg width="38" height="38" viewBox="0 0 38 38" fill="none" xmlns="http://www.w3.org/2000/svg">
<mask id="mask0_1103:14" style="mask-type:alpha" maskUnits="userSpaceOnUse" x="0" y="0" width="38" height="38">
<rect width="38" height="38" fill="#C4C4C4"/>
</mask>
<g mask="url(#mask0_1103:14)">
</g>
<g clip-path="url(#clip0_1103:14)">
<path d="M37.9675 7.56363C36.6095 8.14942 35.1317 8.57102 33.6095 8.73522C35.1899 7.79633 36.3733 6.31303 36.9379 4.56363C35.4549 5.44583 33.8303 6.06444 32.1361 6.39203C31.428 5.63505 30.5716 5.032 29.6203 4.62047C28.669 4.20893 27.6431 3.99773 26.6066 4.00002C22.4128 4.00002 19.04 7.39942 19.04 11.571C19.04 12.1568 19.111 12.7426 19.2264 13.3062C12.9468 12.9778 7.34624 9.97783 3.62287 5.38463C2.94444 6.54343 2.58891 7.86285 2.59329 9.20564C2.59329 11.8329 3.92909 14.1494 5.96606 15.5118C4.76564 15.4646 3.59333 15.1346 2.54447 14.5488V14.642C2.54447 18.321 5.14506 21.3698 8.61103 22.071C7.96025 22.2401 7.2908 22.3265 6.61843 22.3284C6.12583 22.3284 5.65985 22.2796 5.18944 22.213C6.14802 25.213 8.93943 27.392 12.2634 27.463C9.6628 29.5 6.40541 30.6982 2.86844 30.6982C2.23382 30.6982 1.64803 30.676 1.04004 30.605C4.39506 32.7574 8.37582 34 12.6628 34C26.5799 34 34.1953 22.4704 34.1953 12.463C34.1953 12.1346 34.1953 11.8062 34.1731 11.4778C35.6465 10.3994 36.9379 9.06362 37.9675 7.56363Z" fill="#BDBDBD"/>
</g>
<defs>
<clipPath id="clip0_1103:14">
<rect width="36.9674" height="30" fill="white" transform="translate(1 4)"/>
</clipPath>
</defs>
</svg>
