<svg width="262" height="261" viewBox="0 0 262 261" fill="none" xmlns="http://www.w3.org/2000/svg">
<path d="M127.774 9.45322C64.9653 11.0644 14.0485 60.4442 9.99407 122.619L27.1496 123.737C30.6278 70.3997 74.3297 28.0218 128.215 26.6395L127.774 9.45322ZM9.73409 130.616C9.73409 197.555 63.9987 251.82 130.938 251.82V234.628C73.4936 234.628 26.9261 188.06 26.9261 130.616H9.73409ZM130.938 251.82C194.927 251.82 247.329 202.236 251.828 139.387L234.68 138.16C230.82 192.078 185.844 234.628 130.938 234.628V251.82ZM252.141 130.616C252.141 64.7613 199.622 11.1757 134.179 9.45526L133.727 26.6413C189.879 28.1175 234.949 74.1049 234.949 130.616H252.141Z" fill="#2C03D9"/>
<path d="M127.774 9.45325L136.367 9.23282L136.147 0.639654L127.553 0.860085L127.774 9.45325ZM9.99338 122.619L1.41561 122.059L0.856252 130.637L9.43402 131.196L9.99338 122.619ZM128.215 26.6396L128.435 35.2327L137.028 35.0123L136.808 26.4191L128.215 26.6396ZM27.1489 123.737L26.5896 132.315L35.1673 132.874L35.7267 124.297L27.1489 123.737ZM9.7334 130.616V122.02H1.13741V130.616H9.7334ZM26.9254 130.616H35.5214V122.02H26.9254V130.616ZM234.679 138.16L235.293 129.586L226.719 128.972L226.105 137.546L234.679 138.16ZM251.827 139.387L260.401 140.001L261.015 131.427L252.441 130.813L251.827 139.387ZM127.553 0.860085C60.282 2.58572 5.7581 55.4669 1.41561 122.059L18.5711 123.178C22.3374 65.4217 69.6471 19.5431 127.994 18.0464L127.553 0.860085ZM136.808 26.4191L136.367 9.23282L119.181 9.67368L119.621 26.86L136.808 26.4191ZM35.7267 124.297C38.9167 75.3778 79.0109 36.5006 128.435 35.2327L127.994 18.0464C69.6472 19.5431 22.3374 65.4216 18.5711 123.178L35.7267 124.297ZM9.43402 131.196L26.5896 132.315L27.7083 115.159L10.5527 114.041L9.43402 131.196ZM1.13741 130.616C1.13741 202.302 59.2506 260.416 130.937 260.416V243.224C68.7455 243.224 18.3294 192.807 18.3294 130.616H1.13741ZM26.9254 122.02H9.7334V139.212H26.9254V122.02ZM130.937 226.032C78.2403 226.032 35.5214 183.313 35.5214 130.616H18.3294C18.3294 192.807 68.7455 243.224 130.937 243.224V226.032ZM226.105 137.546C222.565 186.998 181.302 226.032 130.937 226.032V243.224C190.384 243.224 239.074 197.158 243.253 138.774L226.105 137.546ZM252.441 130.813L235.293 129.586L234.066 146.734L251.214 147.961L252.441 130.813ZM130.937 260.416C199.469 260.416 255.583 207.314 260.401 140.001L243.253 138.774C239.074 197.158 190.384 243.224 130.937 243.224V260.416Z" fill="#2AC5A9"/>
<path d="M127.994 18.0464C69.647 19.5431 22.3376 65.422 18.5713 123.178" stroke="#FF4B4B" stroke-width="17.192"/>
</svg>
