<svg width="45" height="45" viewBox="0 0 45 45" fill="none" xmlns="http://www.w3.org/2000/svg">
<mask id="mask0_1105:34" style="mask-type:alpha" maskUnits="userSpaceOnUse" x="0" y="0" width="45" height="45">
<rect width="45" height="45" fill="#C4C4C4"/>
</mask>
<g mask="url(#mask0_1105:34)">
<path d="M29.2024 24.0041C29.4869 23.4098 30.2752 22.8592 30.955 22.7855C31.6348 22.7118 32.2544 22.1175 32.3315 21.4679C32.4135 20.8229 32.9872 20.0673 33.6068 19.7932C33.9189 19.6414 34.1729 19.3993 34.3326 19.1015C34.4924 18.8037 34.5497 18.4653 34.4963 18.1346C34.3565 17.4942 34.6603 16.6073 35.1617 16.1673C35.4104 15.9302 35.574 15.6239 35.629 15.2924C35.684 14.9608 35.6276 14.6212 35.4679 14.3222C35.3025 14.0007 35.2166 13.6472 35.2166 13.289C35.2166 12.9308 35.3025 12.5774 35.4679 12.2559C35.6279 11.957 35.6846 11.6172 35.6295 11.2856C35.5745 10.954 35.4107 10.6476 35.1617 10.4107C34.6603 9.96612 34.3589 9.08155 34.4963 8.44346C34.5504 8.11204 34.4934 7.77277 34.3337 7.47409C34.1739 7.17542 33.9195 6.93259 33.6068 6.78029C33.2756 6.61142 32.9887 6.37299 32.7678 6.08292C32.5469 5.79285 32.3978 5.4587 32.3315 5.10559C32.2765 4.77541 32.1139 4.47026 31.8667 4.23365C31.6195 3.99704 31.3004 3.84105 30.955 3.78795C30.5853 3.72587 30.2353 3.58406 29.9316 3.37329C29.6279 3.16253 29.3785 2.88837 29.2024 2.57166C29.0434 2.2729 28.789 2.03021 28.4761 1.87865C28.1633 1.7271 27.8081 1.67453 27.4619 1.72855C27.0903 1.77831 26.7118 1.7465 26.3551 1.63554C25.9984 1.52457 25.6728 1.33737 25.4031 1.08816C24.9379 0.604412 24.07 0.475412 23.4746 0.795609C22.8791 1.1158 21.9028 1.1158 21.3097 0.795609C20.9978 0.640619 20.6422 0.584962 20.2948 0.636764C19.9474 0.688566 19.6264 0.845114 19.3787 1.08355C19.1093 1.33305 18.7837 1.52044 18.4269 1.63143C18.0701 1.74241 17.6915 1.77405 17.32 1.72395C16.9743 1.67079 16.6198 1.72405 16.3078 1.87601C15.9958 2.02798 15.7424 2.27079 15.5843 2.56936C15.2974 3.15907 14.5091 3.70963 13.8293 3.78334C13.4832 3.83647 13.1636 3.9927 12.9159 4.22974C12.6683 4.46678 12.5054 4.77251 12.4504 5.10329C12.385 5.45639 12.2361 5.79057 12.0151 6.08039C11.7941 6.3702 11.5068 6.60801 11.1751 6.77568C10.8634 6.92876 10.6103 7.17198 10.4519 7.47065C10.2934 7.76931 10.2378 8.10816 10.2928 8.43886C10.4254 9.07695 10.124 9.96382 9.62259 10.4061C9.12116 10.8484 8.98134 11.6777 9.31643 12.2513C9.65152 12.8179 9.65152 13.7509 9.31643 14.3176C9.15651 14.6169 9.1 14.957 9.15501 15.2889C9.21002 15.6208 9.37372 15.9276 9.62259 16.165C10.1264 16.6027 10.4254 17.4896 10.2928 18.1323C10.2377 18.4624 10.2934 18.8006 10.4519 19.0986C10.6104 19.3965 10.8636 19.6389 11.1751 19.7909C11.7971 20.065 12.3684 20.8205 12.4479 21.4655C12.5299 22.1152 13.1471 22.7095 13.8269 22.7832C14.5067 22.8569 15.295 23.4098 15.5819 24.0018C15.7412 24.2992 15.9949 24.5409 16.3066 24.6923C16.6184 24.8438 16.9722 24.8971 17.3176 24.8449C17.9878 24.7182 18.9159 25.0038 19.3763 25.4853C19.6247 25.7226 19.9452 25.8787 20.2921 25.9313C20.639 25.9838 20.9944 25.9301 21.3073 25.7778C21.9004 25.4576 22.8767 25.4576 23.4721 25.7778C24.0676 26.098 24.9354 25.9644 25.4007 25.4853C25.866 25.0015 26.7893 24.7182 27.4595 24.8449C27.8056 24.8982 28.1606 24.8456 28.4736 24.6946C28.7866 24.5436 29.0417 24.3019 29.2024 24.0041V24.0041ZM22.3921 21.1154C20.2183 21.1154 18.1335 20.2902 16.5964 18.8214C15.0593 17.3526 14.1957 15.3605 14.1957 13.2833C14.1957 11.2061 15.0593 9.21392 16.5964 7.74511C18.1335 6.2763 20.2183 5.45113 22.3921 5.45113C24.566 5.45113 26.6508 6.2763 28.1879 7.74511C29.725 9.21392 30.5886 11.2061 30.5886 13.2833C30.5886 15.3605 29.725 17.3526 28.1879 18.8214C26.6508 20.2902 24.566 21.1154 22.3921 21.1154ZM12.689 25.7456L9.6925 41.9835L17.2332 40.9146L23.9374 44.3838L26.9219 28.2104C24.5121 28.8837 21.9713 29.0115 19.5009 28.5837C17.0305 28.1558 14.6983 27.1842 12.689 25.7456V25.7456ZM31.941 25.8562C31.1881 26.379 30.3897 26.8391 29.5544 27.2314L27.7512 36.9893L35.8729 32.7784L31.941 25.8562V25.8562Z" fill="#2091F9"/>
</g>
</svg>
