<svg width="33" height="33" viewBox="0 0 33 33" fill="none" xmlns="http://www.w3.org/2000/svg">
<g clip-path="url(#clip0_888:261)">
<path d="M32.4048 11.4409L16.9361 4.22217C16.6601 4.09326 16.3399 4.09326 16.064 4.22217L0.595185 11.4409C0.231603 11.6101 0 11.9746 0 12.3755V22.688H2.06247V13.9947L4.12494 14.9572V24.7504C4.12494 25.2157 4.43611 25.6225 4.88526 25.7454L16.2291 28.8392C16.3177 28.8634 16.4083 28.8754 16.5 28.8754C16.5916 28.8754 16.6822 28.8634 16.7709 28.8392L28.1147 25.7454C28.5638 25.6226 28.875 25.2157 28.875 24.7504V14.9572L32.4048 13.31C32.7684 13.1409 33 12.7763 33 12.3755C33 11.9746 32.7684 11.6101 32.4048 11.4409ZM26.8125 23.963L16.5 26.7747L6.18748 23.963V15.9198L16.0639 20.5288C16.2019 20.5932 16.3509 20.6255 16.5 20.6255C16.649 20.6255 16.798 20.5933 16.936 20.5288L26.8124 15.9198C26.8125 15.9197 26.8125 23.963 26.8125 23.963ZM16.5 18.4562L3.46936 12.3755L16.5 6.29474L29.5306 12.3755L16.5 18.4562Z" fill="#969CBA"/>
</g>
<defs>
<clipPath id="clip0_888:261">
<rect width="33" height="33" fill="white"/>
</clipPath>
</defs>
</svg>
