<svg width="33" height="33" fill="none" xmlns="http://www.w3.org/2000/svg"><g clip-path="url(#a)"><path d="M32.405 11.44 16.936 4.223a1.032 1.032 0 0 0-.872 0L.595 11.441a1.03 1.03 0 0 0-.595.934v10.313h2.062v-8.693l2.063.962v9.793c0 .466.311.872.76.995L16.23 28.84a1.025 1.025 0 0 0 .542 0l11.344-3.094c.449-.122.76-.53.76-.995v-9.793l3.53-1.647a1.03 1.03 0 0 0 0-1.87Zm-5.593 12.523L16.5 26.775 6.187 23.963V15.92l9.877 4.609a1.031 1.031 0 0 0 .872 0l9.876-4.61v8.044ZM16.5 18.456l-13.03-6.08L16.5 6.295l13.03 6.08-13.03 6.081Z" fill="#969CBA"/></g><defs><clipPath id="a"><path fill="#fff" d="M0 0h33v33H0z"/></clipPath></defs></svg>