<svg width="45" height="45" fill="none" xmlns="http://www.w3.org/2000/svg"><mask id="a" style="mask-type:alpha" maskUnits="userSpaceOnUse" x="0" y="0" width="45" height="45"><path fill="#C4C4C4" d="M0 0h45v45H0z"/></mask><g mask="url(#a)"><path d="M28.125 7.5a15 15 0 1 1 0 30 15 15 0 0 1 0-30Zm0 3.75a11.25 11.25 0 1 0 0 22.5 11.25 11.25 0 0 0 0-22.5ZM26.25 15h2.813v7.087l4.368 4.37-1.987 1.987-5.194-5.194V15ZM3.75 33.75a1.875 1.875 0 0 1 0-3.75h7.181a19.25 19.25 0 0 0 2.194 3.75H3.75Zm1.875-9.375a1.875 1.875 0 0 1 0-3.75h3.844L9.375 22.5l.094 1.875H5.625ZM7.5 15a1.875 1.875 0 0 1 0-3.75h5.625A19.246 19.246 0 0 0 10.931 15H7.5Z" fill="#2091F9"/></g></svg>