<svg width="45" height="45" fill="none" xmlns="http://www.w3.org/2000/svg"><mask id="a" style="mask-type:alpha" maskUnits="userSpaceOnUse" x="0" y="0" width="45" height="45"><path fill="#C4C4C4" d="M0 0h45v45H0z"/></mask><g mask="url(#a)"><path d="M22.5 0C16.29 0 10.986 2.197 6.592 6.592 2.197 10.986 0 16.289 0 22.5c0 6.21 2.197 11.514 6.592 15.908C10.986 42.803 16.289 45 22.5 45c6.21 0 11.514-2.197 15.908-6.592C42.803 34.014 45 28.711 45 22.5c0-6.21-2.197-11.514-6.592-15.908C34.014 2.197 28.711 0 22.5 0ZM9.58 29.092c1.23 3.105 1.846 5.918 1.846 8.437-2.344-1.64-4.204-3.794-5.581-6.46-1.377-2.666-2.066-5.522-2.066-8.569 0-6.035 2.373-10.898 7.12-14.59 1.054.82 2.02 1.89 2.9 3.208.879 1.319 1.289 2.564 1.23 3.736-.234 1.816-1.435 3.603-3.603 5.36-1.114 1.173-1.86 2.564-2.241 4.176a7.405 7.405 0 0 0 .395 4.702ZM41.22 22.5c0 5.156-1.83 9.565-5.492 13.227-3.663 3.663-8.072 5.494-13.228 5.494-2.578 0-5.01-.498-7.295-1.494.293-3.809-.469-7.793-2.285-11.954-.645-1.992-.264-3.574 1.143-4.746 2.93-2.93 4.482-5.537 4.658-7.822.351-3.164-1.143-6.357-4.483-9.58 2.285-1.23 5.04-1.846 8.262-1.846 1.523 0 2.959.176 4.307.528l-3.78 3.779-1.318 1.318 5.45 5.45 13.183 1.845c.586 2.051.879 3.985.879 5.801ZM29.093 11.426l-2.11-2.022 3.78-3.779c3.222 1.523 5.771 3.896 7.646 7.12l-9.316-1.32Zm-5.45 7.91-1.494 2.197c-1.171 1.875-1.318 3.75-.439 5.625l.791 1.758 1.318 6.328c.176 1.348.996 2.227 2.461 2.637.235.117.528.176.88.176.878 0 1.698-.323 2.46-.967l2.11-2.022.175-.351c.88-3.281 1.875-5.479 2.989-6.592 1.582-1.113 2.021-3.105 1.318-5.977-.41-1.582-1.494-2.724-3.252-3.427l-4.482-1.846h-.352c-2.05 0-3.545.82-4.482 2.46Zm1.67 4.307 1.495-2.286c.234-.468.615-.703 1.142-.703l3.78 1.319c.468.234.703.468.703.703.117.41.175 1.113.175 2.11-1.582 1.171-3.017 3.837-4.306 7.997l-.967.967-1.055-5.977-1.142-2.285c-.352-.527-.293-1.142.175-1.845Z" fill="#2091F9"/></g></svg>